<svg id="visual" viewBox="0 0 1260 200" width="1260" height="200" xmlns="http://www.w3.org/2000/svg" xmlns:xlink="http://www.w3.org/1999/xlink" version="1.1"><path d="M0 47L90 47L90 43L180 43L180 23L270 23L270 29L360 29L360 65L450 65L450 35L540 35L540 69L630 69L630 39L720 39L720 75L810 75L810 49L900 49L900 57L990 57L990 45L1080 45L1080 35L1170 35L1170 25L1260 25L1260 55L1260 0L1260 0L1170 0L1170 0L1080 0L1080 0L990 0L990 0L900 0L900 0L810 0L810 0L720 0L720 0L630 0L630 0L540 0L540 0L450 0L450 0L360 0L360 0L270 0L270 0L180 0L180 0L90 0L90 0L0 0Z" fill="#000219"></path><path d="M0 165L90 165L90 167L180 167L180 131L270 131L270 141L360 141L360 109L450 109L450 89L540 89L540 163L630 163L630 107L720 107L720 145L810 145L810 109L900 109L900 103L990 103L990 107L1080 107L1080 153L1170 153L1170 153L1260 153L1260 109L1260 53L1260 23L1170 23L1170 33L1080 33L1080 43L990 43L990 55L900 55L900 47L810 47L810 73L720 73L720 37L630 37L630 67L540 67L540 33L450 33L450 63L360 63L360 27L270 27L270 21L180 21L180 41L90 41L90 45L0 45Z" fill="#26486f"></path><path d="M0 201L90 201L90 201L180 201L180 201L270 201L270 201L360 201L360 201L450 201L450 201L540 201L540 201L630 201L630 201L720 201L720 201L810 201L810 201L900 201L900 201L990 201L990 201L1080 201L1080 201L1170 201L1170 201L1260 201L1260 201L1260 107L1260 151L1170 151L1170 151L1080 151L1080 105L990 105L990 101L900 101L900 107L810 107L810 143L720 143L720 105L630 105L630 161L540 161L540 87L450 87L450 107L360 107L360 139L270 139L270 129L180 129L180 165L90 165L90 163L0 163Z" fill="#2995d2"></path></svg>