<svg id="visual" viewBox="0 0 1024 200" width="1024" height="200" xmlns="http://www.w3.org/2000/svg" xmlns:xlink="http://www.w3.org/1999/xlink" version="1.1"><path d="M0 49L17 49.7C34 50.3 68 51.7 102.2 50.3C136.3 49 170.7 45 204.8 42.3C239 39.7 273 38.3 307.2 43.7C341.3 49 375.7 61 409.8 67C444 73 478 73 512 71.7C546 70.3 580 67.7 614.2 65C648.3 62.3 682.7 59.7 716.8 54.3C751 49 785 41 819.2 42C853.3 43 887.7 53 921.8 60.3C956 67.7 990 72.3 1007 74.7L1024 77L1024 0L1007 0C990 0 956 0 921.8 0C887.7 0 853.3 0 819.2 0C785 0 751 0 716.8 0C682.7 0 648.3 0 614.2 0C580 0 546 0 512 0C478 0 444 0 409.8 0C375.7 0 341.3 0 307.2 0C273 0 239 0 204.8 0C170.7 0 136.3 0 102.2 0C68 0 34 0 17 0L0 0Z" fill="#6198ff"></path><path d="M0 61L17 65.3C34 69.7 68 78.3 102.2 77.7C136.3 77 170.7 67 204.8 62C239 57 273 57 307.2 63.7C341.3 70.3 375.7 83.7 409.8 89C444 94.3 478 91.7 512 91.3C546 91 580 93 614.2 91.3C648.3 89.7 682.7 84.3 716.8 78.7C751 73 785 67 819.2 66.3C853.3 65.7 887.7 70.3 921.8 78.3C956 86.3 990 97.7 1007 103.3L1024 109L1024 75L1007 72.7C990 70.3 956 65.7 921.8 58.3C887.7 51 853.3 41 819.2 40C785 39 751 47 716.8 52.3C682.7 57.7 648.3 60.3 614.2 63C580 65.7 546 68.3 512 69.7C478 71 444 71 409.8 65C375.7 59 341.3 47 307.2 41.7C273 36.3 239 37.7 204.8 40.3C170.7 43 136.3 47 102.2 48.3C68 49.7 34 48.3 17 47.7L0 47Z" fill="#3c80ff"></path><path d="M0 109L17 109C34 109 68 109 102.2 104.3C136.3 99.7 170.7 90.3 204.8 85.3C239 80.3 273 79.7 307.2 85.3C341.3 91 375.7 103 409.8 108.7C444 114.3 478 113.7 512 113C546 112.3 580 111.7 614.2 115.3C648.3 119 682.7 127 716.8 127C751 127 785 119 819.2 112.7C853.3 106.3 887.7 101.7 921.8 107.7C956 113.7 990 130.3 1007 138.7L1024 147L1024 107L1007 101.3C990 95.7 956 84.3 921.8 76.3C887.7 68.3 853.3 63.7 819.2 64.3C785 65 751 71 716.8 76.7C682.7 82.3 648.3 87.7 614.2 89.3C580 91 546 89 512 89.3C478 89.7 444 92.3 409.8 87C375.7 81.7 341.3 68.3 307.2 61.7C273 55 239 55 204.8 60C170.7 65 136.3 75 102.2 75.7C68 76.3 34 67.7 17 63.3L0 59Z" fill="#0066ff"></path><path d="M0 187L17 185.3C34 183.7 68 180.3 102.2 179.7C136.3 179 170.7 181 204.8 178.3C239 175.7 273 168.3 307.2 166.3C341.3 164.3 375.7 167.7 409.8 168.7C444 169.7 478 168.3 512 166.7C546 165 580 163 614.2 166.3C648.3 169.7 682.7 178.3 716.8 179.7C751 181 785 175 819.2 172C853.3 169 887.7 169 921.8 170.7C956 172.3 990 175.7 1007 177.3L1024 179L1024 145L1007 136.7C990 128.3 956 111.7 921.8 105.7C887.7 99.7 853.3 104.3 819.2 110.7C785 117 751 125 716.8 125C682.7 125 648.3 117 614.2 113.3C580 109.7 546 110.3 512 111C478 111.7 444 112.3 409.8 106.7C375.7 101 341.3 89 307.2 83.3C273 77.7 239 78.3 204.8 83.3C170.7 88.3 136.3 97.7 102.2 102.3C68 107 34 107 17 107L0 107Z" fill="#0059dd"></path><path d="M0 201L17 201C34 201 68 201 102.2 201C136.3 201 170.7 201 204.8 201C239 201 273 201 307.2 201C341.3 201 375.7 201 409.8 201C444 201 478 201 512 201C546 201 580 201 614.2 201C648.3 201 682.7 201 716.8 201C751 201 785 201 819.2 201C853.3 201 887.7 201 921.8 201C956 201 990 201 1007 201L1024 201L1024 177L1007 175.3C990 173.7 956 170.3 921.8 168.7C887.7 167 853.3 167 819.2 170C785 173 751 179 716.8 177.7C682.7 176.3 648.3 167.7 614.2 164.3C580 161 546 163 512 164.7C478 166.3 444 167.7 409.8 166.7C375.7 165.7 341.3 162.3 307.2 164.3C273 166.3 239 173.7 204.8 176.3C170.7 179 136.3 177 102.2 177.7C68 178.3 34 181.7 17 183.3L0 185Z" fill="#004cbb"></path></svg>