<svg id="visual" viewBox="0 0 900 350" width="900" height="350" xmlns="http://www.w3.org/2000/svg" xmlns:xlink="http://www.w3.org/1999/xlink" version="1.1"><path d="M0 183L64 183L64 197L129 197L129 169L193 169L193 159L257 159L257 169L321 169L321 138L386 138L386 208L450 208L450 64L514 64L514 92L579 92L579 89L643 89L643 169L707 169L707 204L771 204L771 166L836 166L836 131L900 131L900 180L900 0L900 0L836 0L836 0L771 0L771 0L707 0L707 0L643 0L643 0L579 0L579 0L514 0L514 0L450 0L450 0L386 0L386 0L321 0L321 0L257 0L257 0L193 0L193 0L129 0L129 0L64 0L64 0L0 0Z" fill="#000219"></path><path d="M0 299L64 299L64 271L129 271L129 271L193 271L193 232L257 232L257 211L321 211L321 257L386 257L386 267L450 267L450 187L514 187L514 225L579 225L579 194L643 194L643 225L707 225L707 295L771 295L771 278L836 278L836 173L900 173L900 292L900 178L900 129L836 129L836 164L771 164L771 202L707 202L707 167L643 167L643 87L579 87L579 90L514 90L514 62L450 62L450 206L386 206L386 136L321 136L321 167L257 167L257 157L193 157L193 167L129 167L129 195L64 195L64 181L0 181Z" fill="#26486f"></path><path d="M0 351L64 351L64 351L129 351L129 351L193 351L193 351L257 351L257 351L321 351L321 351L386 351L386 351L450 351L450 351L514 351L514 351L579 351L579 351L643 351L643 351L707 351L707 351L771 351L771 351L836 351L836 351L900 351L900 351L900 290L900 171L836 171L836 276L771 276L771 293L707 293L707 223L643 223L643 192L579 192L579 223L514 223L514 185L450 185L450 265L386 265L386 255L321 255L321 209L257 209L257 230L193 230L193 269L129 269L129 269L64 269L64 297L0 297Z" fill="#2995d2"></path></svg>