<svg id="visual" viewBox="0 0 960 250" width="960" height="250" xmlns="http://www.w3.org/2000/svg" xmlns:xlink="http://www.w3.org/1999/xlink" version="1.1"><path d="M0 76L80 76L80 56L160 56L160 86L240 86L240 59L320 59L320 29L400 29L400 46L480 46L480 54L560 54L560 74L640 74L640 44L720 44L720 69L800 69L800 21L880 21L880 64L960 64L960 36L960 0L960 0L880 0L880 0L800 0L800 0L720 0L720 0L640 0L640 0L560 0L560 0L480 0L480 0L400 0L400 0L320 0L320 0L240 0L240 0L160 0L160 0L80 0L80 0L0 0Z" fill="#000219"></path><path d="M0 114L80 114L80 99L160 99L160 194L240 194L240 124L320 124L320 174L400 174L400 89L480 89L480 131L560 131L560 171L640 171L640 166L720 166L720 104L800 104L800 69L880 69L880 111L960 111L960 104L960 34L960 62L880 62L880 19L800 19L800 67L720 67L720 42L640 42L640 72L560 72L560 52L480 52L480 44L400 44L400 27L320 27L320 57L240 57L240 84L160 84L160 54L80 54L80 74L0 74Z" fill="#1d3150"></path><path d="M0 224L80 224L80 199L160 199L160 234L240 234L240 199L320 199L320 211L400 211L400 189L480 189L480 214L560 214L560 209L640 209L640 204L720 204L720 194L800 194L800 219L880 219L880 214L960 214L960 206L960 102L960 109L880 109L880 67L800 67L800 102L720 102L720 164L640 164L640 169L560 169L560 129L480 129L480 87L400 87L400 172L320 172L320 122L240 122L240 192L160 192L160 97L80 97L80 112L0 112Z" fill="#2c608f"></path><path d="M0 251L80 251L80 251L160 251L160 251L240 251L240 251L320 251L320 251L400 251L400 251L480 251L480 251L560 251L560 251L640 251L640 251L720 251L720 251L800 251L800 251L880 251L880 251L960 251L960 251L960 204L960 212L880 212L880 217L800 217L800 192L720 192L720 202L640 202L640 207L560 207L560 212L480 212L480 187L400 187L400 209L320 209L320 197L240 197L240 232L160 232L160 197L80 197L80 222L0 222Z" fill="#2995d2"></path></svg>