<svg id="visual" viewBox="0 0 900 350" width="900" height="350" xmlns="http://www.w3.org/2000/svg" xmlns:xlink="http://www.w3.org/1999/xlink" version="1.1"><path d="M0 215L64 215L64 75L129 75L129 218L193 218L193 120L257 120L257 99L321 99L321 99L386 99L386 194L450 194L450 159L514 159L514 225L579 225L579 120L643 120L643 47L707 47L707 215L771 215L771 96L836 96L836 145L900 145L900 204L900 0L900 0L836 0L836 0L771 0L771 0L707 0L707 0L643 0L643 0L579 0L579 0L514 0L514 0L450 0L450 0L386 0L386 0L321 0L321 0L257 0L257 0L193 0L193 0L129 0L129 0L64 0L64 0L0 0Z" fill="#000219"></path><path d="M0 274L64 274L64 169L129 169L129 288L193 288L193 250L257 250L257 159L321 159L321 197L386 197L386 253L450 253L450 274L514 274L514 260L579 260L579 242L643 242L643 166L707 166L707 271L771 271L771 176L836 176L836 281L900 281L900 278L900 202L900 143L836 143L836 94L771 94L771 213L707 213L707 45L643 45L643 118L579 118L579 223L514 223L514 157L450 157L450 192L386 192L386 97L321 97L321 97L257 97L257 118L193 118L193 216L129 216L129 73L64 73L64 213L0 213Z" fill="#26486f"></path><path d="M0 351L64 351L64 351L129 351L129 351L193 351L193 351L257 351L257 351L321 351L321 351L386 351L386 351L450 351L450 351L514 351L514 351L579 351L579 351L643 351L643 351L707 351L707 351L771 351L771 351L836 351L836 351L900 351L900 351L900 276L900 279L836 279L836 174L771 174L771 269L707 269L707 164L643 164L643 240L579 240L579 258L514 258L514 272L450 272L450 251L386 251L386 195L321 195L321 157L257 157L257 248L193 248L193 286L129 286L129 167L64 167L64 272L0 272Z" fill="#2995d2"></path></svg>