<svg id="visual" viewBox="0 0 900 350" width="900" height="350" xmlns="http://www.w3.org/2000/svg" xmlns:xlink="http://www.w3.org/1999/xlink" version="1.1"><path d="M0 123L64 123L64 123L129 123L129 71L193 71L193 169L257 169L257 239L321 239L321 187L386 187L386 134L450 134L450 194L514 194L514 123L579 123L579 103L643 103L643 190L707 190L707 152L771 152L771 64L836 64L836 110L900 110L900 117L900 0L900 0L836 0L836 0L771 0L771 0L707 0L707 0L643 0L643 0L579 0L579 0L514 0L514 0L450 0L450 0L386 0L386 0L321 0L321 0L257 0L257 0L193 0L193 0L129 0L129 0L64 0L64 0L0 0Z" fill="#000219"></path><path d="M0 232L64 232L64 242L129 242L129 271L193 271L193 246L257 246L257 306L321 306L321 316L386 316L386 225L450 225L450 288L514 288L514 285L579 285L579 215L643 215L643 267L707 267L707 222L771 222L771 316L836 316L836 253L900 253L900 292L900 115L900 108L836 108L836 62L771 62L771 150L707 150L707 188L643 188L643 101L579 101L579 121L514 121L514 192L450 192L450 132L386 132L386 185L321 185L321 237L257 237L257 167L193 167L193 69L129 69L129 121L64 121L64 121L0 121Z" fill="#26486f"></path><path d="M0 351L64 351L64 351L129 351L129 351L193 351L193 351L257 351L257 351L321 351L321 351L386 351L386 351L450 351L450 351L514 351L514 351L579 351L579 351L643 351L643 351L707 351L707 351L771 351L771 351L836 351L836 351L900 351L900 351L900 290L900 251L836 251L836 314L771 314L771 220L707 220L707 265L643 265L643 213L579 213L579 283L514 283L514 286L450 286L450 223L386 223L386 314L321 314L321 304L257 304L257 244L193 244L193 269L129 269L129 240L64 240L64 230L0 230Z" fill="#2995d2"></path></svg>