<svg id="visual" viewBox="0 0 900 300" width="900" height="300" xmlns="http://www.w3.org/2000/svg" xmlns:xlink="http://www.w3.org/1999/xlink" version="1.1"><path d="M0 148L45 148L45 55L90 55L90 112L135 112L135 133L180 133L180 64L225 64L225 103L270 103L270 64L315 64L315 64L360 64L360 70L405 70L405 133L450 133L450 46L495 46L495 103L540 103L540 121L585 121L585 157L630 157L630 142L675 142L675 91L720 91L720 175L765 175L765 115L810 115L810 148L855 148L855 73L900 73L900 121L900 0L900 0L855 0L855 0L810 0L810 0L765 0L765 0L720 0L720 0L675 0L675 0L630 0L630 0L585 0L585 0L540 0L540 0L495 0L495 0L450 0L450 0L405 0L405 0L360 0L360 0L315 0L315 0L270 0L270 0L225 0L225 0L180 0L180 0L135 0L135 0L90 0L90 0L45 0L45 0L0 0Z" fill="#00000e"></path><path d="M0 190L45 190L45 187L90 187L90 253L135 253L135 193L180 193L180 190L225 190L225 211L270 211L270 265L315 265L315 214L360 214L360 226L405 226L405 229L450 229L450 202L495 202L495 241L540 241L540 217L585 217L585 247L630 247L630 271L675 271L675 271L720 271L720 235L765 235L765 205L810 205L810 196L855 196L855 226L900 226L900 226L900 119L900 71L855 71L855 146L810 146L810 113L765 113L765 173L720 173L720 89L675 89L675 140L630 140L630 155L585 155L585 119L540 119L540 101L495 101L495 44L450 44L450 131L405 131L405 68L360 68L360 62L315 62L315 62L270 62L270 101L225 101L225 62L180 62L180 131L135 131L135 110L90 110L90 53L45 53L45 146L0 146Z" fill="#852855"></path><path d="M0 301L45 301L45 301L90 301L90 301L135 301L135 301L180 301L180 301L225 301L225 301L270 301L270 301L315 301L315 301L360 301L360 301L405 301L405 301L450 301L450 301L495 301L495 301L540 301L540 301L585 301L585 301L630 301L630 301L675 301L675 301L720 301L720 301L765 301L765 301L810 301L810 301L855 301L855 301L900 301L900 301L900 224L900 224L855 224L855 194L810 194L810 203L765 203L765 233L720 233L720 269L675 269L675 269L630 269L630 245L585 245L585 215L540 215L540 239L495 239L495 200L450 200L450 227L405 227L405 224L360 224L360 212L315 212L315 263L270 263L270 209L225 209L225 188L180 188L180 191L135 191L135 251L90 251L90 185L45 185L45 188L0 188Z" fill="#f7770f"></path></svg>